<svg id="wave" style="transform:rotate(0deg); transition: 0.3s" viewBox="0 0 1440 200" version="1.1" xmlns="http://www.w3.org/2000/svg"><defs><linearGradient id="sw-gradient-0" x1="0" x2="0" y1="1" y2="0"><stop stop-color="rgba(255, 255, 255, 1)" offset="0%"></stop><stop stop-color="rgba(255, 255, 255, 1)" offset="100%"></stop></linearGradient></defs><path style="transform:translate(0, 0px); opacity:1" fill="url(#sw-gradient-0)" d="M0,100L80,113.3C160,127,320,153,480,140C640,127,800,73,960,63.3C1120,53,1280,87,1440,106.7C1600,127,1760,133,1920,130C2080,127,2240,113,2400,100C2560,87,2720,73,2880,60C3040,47,3200,33,3360,50C3520,67,3680,113,3840,120C4000,127,4160,93,4320,90C4480,87,4640,113,4800,120C4960,127,5120,113,5280,96.7C5440,80,5600,60,5760,53.3C5920,47,6080,53,6240,63.3C6400,73,6560,87,6720,86.7C6880,87,7040,73,7200,63.3C7360,53,7520,47,7680,56.7C7840,67,8000,93,8160,90C8320,87,8480,53,8640,40C8800,27,8960,33,9120,40C9280,47,9440,53,9600,53.3C9760,53,9920,47,10080,63.3C10240,80,10400,120,10560,143.3C10720,167,10880,173,11040,176.7C11200,180,11360,180,11440,180L11520,180L11520,200L11440,200C11360,200,11200,200,11040,200C10880,200,10720,200,10560,200C10400,200,10240,200,10080,200C9920,200,9760,200,9600,200C9440,200,9280,200,9120,200C8960,200,8800,200,8640,200C8480,200,8320,200,8160,200C8000,200,7840,200,7680,200C7520,200,7360,200,7200,200C7040,200,6880,200,6720,200C6560,200,6400,200,6240,200C6080,200,5920,200,5760,200C5600,200,5440,200,5280,200C5120,200,4960,200,4800,200C4640,200,4480,200,4320,200C4160,200,4000,200,3840,200C3680,200,3520,200,3360,200C3200,200,3040,200,2880,200C2720,200,2560,200,2400,200C2240,200,2080,200,1920,200C1760,200,1600,200,1440,200C1280,200,1120,200,960,200C800,200,640,200,480,200C320,200,160,200,80,200L0,200Z"></path></svg>